:version 1.10
:name ASF
:units
  mass 1
  length 1
  angle deg
:documentation
  ASF file generated by Kaydara
:root
  axis xyz
  order  tx ty tz rx ry rz
  position 0 0 0
  orientation 0 0 0
:bonedata
  begin
    id 1
    name RightUpLegDummy
    direction -0.65628 -0.754516 0.00165102
    length 4.76918
    axis 0 0 0 xyz
  end
  begin
    id 2
    name RightUpLeg
    direction -0.145584 -0.923362 0.355256
    length 17.9961
    axis -24.7611 -13.1006 1.78531 xyz
    dof rx ry rz
  end
  begin
    id 3
    name RightLeg
    direction 0.263379 0.172355 -0.949171
    length 13.3386
    axis 89.6202 -21.1929 12.3855 xyz
    dof rx ry rz
  end
  begin
    id 4
    name RightFoot
    direction 0.224283 -0.968777 -0.105675
    length 5.86697
    axis 56.995 -39.6905 17.3365 xyz
    dof rx ry rz
  end
  begin
    id 5
    name RightToes
    direction -0.0806345 -0.9037 0.420506
    length 4.75197
    axis 146.825 -39.7828 17.6019 xyz
    dof rx ry rz
  end
  begin
    id 6
    name SpineDummy
    direction -3.39852e-014 1 9.33296e-014
    length 8.13779
    axis 0 0 0 xyz
  end
  begin
    id 7
    name Spine
    direction -0.156609 0.733703 0.661176
    length 7.14978
    axis 41.2365 5.68757 17.0844 xyz
    dof rx ry rz
  end
  begin
    id 8
    name Spine1
    direction 0 0 0
    length 0
    axis 42.8809 47.8308 -3.36039 xyz
    dof rx ry rz
  end
  begin
    id 9
    name HEadDummy
    direction 0.546431 0.701947 0.456819
    length 3.55512
    axis 42.8809 47.8308 -3.36039 xyz
  end
  begin
    id 10
    name HEad
    direction 0.23444 0.828559 0.508457
    length 7.35827
    axis 51.1864 49.2662 27.4903 xyz
    dof rx ry rz
  end
  begin
    id 11
    name LeftShoulder1Dummy
    direction 0.431183 0.475873 -0.766568
    length 2.49352
    axis 42.8809 47.8308 -3.36039 xyz
  end
  begin
    id 12
    name LeftShoulder1
    direction 0.268187 -0.383402 -0.883786
    length 4.48604
    axis -119.517 0.106469 35.1736 xyz
    dof rx ry rz
  end
  begin
    id 13
    name LeftArm
    direction 0.380567 -0.703221 -0.600541
    length 10.1142
    axis -5.41825 36.2925 7.8293 xyz
    dof rx ry rz
  end
  begin
    id 14
    name LeftForeArm
    direction 0.541071 -0.732356 -0.413396
    length 9.39839
    axis 4.65387 33.7604 7.81644 xyz
    dof rx ry rz
  end
  begin
    id 15
    name LeftHand
    direction 0.847511 -0.389379 -0.360707
    length 3.66142
    axis 7.65593 21.1436 -24.6758 xyz
    dof rx ry rz
  end
  begin
    id 16
    name RightShoulderDummy
    direction -0.692546 0.541855 0.476208
    length 2.49352
    axis 42.8809 47.8308 -3.36039 xyz
  end
  begin
    id 17
    name RightShoulder
    direction -0.870808 -0.316653 0.376065
    length 4.48602
    axis 141.571 51.133 -100.254 xyz
    dof rx ry rz
  end
  begin
    id 18
    name RightArm
    direction 0.366897 -0.87275 0.322015
    length 10.1142
    axis 92.3258 71.2036 138.917 xyz
    dof rx ry rz
  end
  begin
    id 19
    name RightForeArm
    direction 0.702487 -0.694568 0.155197
    length 9.39835
    axis 153.863 41.5092 -176.604 xyz
    dof rx ry rz
  end
  begin
    id 20
    name RightHand
    direction 0.79502 -0.601276 0.0800636
    length 3.66142
    axis 154.247 4.59222 142.9 xyz
    dof rx ry rz
  end
  begin
    id 21
    name LeftUpLegDummy
    direction 0.65628 -0.754516 0.00165102
    length 4.76919
    axis 0 0 0 xyz
  end
  begin
    id 22
    name LeftUpLeg
    direction -0.1277 -0.689368 0.713067
    length 17.9961
    axis -48.3385 -17.8675 0.791927 xyz
    dof rx ry rz
  end
  begin
    id 23
    name LeftLeg
    direction 0.109849 -0.991246 -0.0732378
    length 13.3386
    axis -2.05791 -7.30784 1.72042 xyz
    dof rx ry rz
  end
  begin
    id 24
    name LeftFoot
    direction 0.0448355 -0.272614 0.961078
    length 5.86697
    axis -18.7733 -7.89606 10.2113 xyz
    dof rx ry rz
  end
  begin
    id 25
    name LeftToes
    direction -0.18506 0.293668 0.937823
    length 4.75197
    axis 71.2267 -7.89606 10.2113 xyz
    dof rx ry rz
  end
:hierarchy
  begin
    root RightUpLegDummy SpineDummy LeftUpLegDummy
    RightUpLegDummy RightUpLeg
    RightUpLeg RightLeg
    RightLeg RightFoot
    RightFoot RightToes
    SpineDummy Spine
    Spine Spine1
    Spine1 HEadDummy LeftShoulder1Dummy RightShoulderDummy
    HEadDummy HEad
    LeftShoulder1Dummy LeftShoulder1
    LeftShoulder1 LeftArm
    LeftArm LeftForeArm
    LeftForeArm LeftHand
    RightShoulderDummy RightShoulder
    RightShoulder RightArm
    RightArm RightForeArm
    RightForeArm RightHand
    LeftUpLegDummy LeftUpLeg
    LeftUpLeg LeftLeg
    LeftLeg LeftFoot
    LeftFoot LeftToes
  end

:SAMPLES-PER-SECOND 30
:FULLY-SPECIFIED
:DEGREES
537
root  -15.8587 37.4513 -16.7218 -4.04068 -57.9751 -52.5856
RightUpLeg  -57.2203 20.9595 -6.34183
RightLeg  -62.2326 -21.1927 8.52783
RightFoot  14.7246 5.24333 -15.6015
RightToes  -1.27222e-014 -6.36111e-015 6.36111e-015
Spine  -5.34585 -15.0165 -1.16242
Spine1  -37.6633 -13.1331 46.7021
HEad  -11.2426 -12.8316 -12.1654
LeftShoulder1  6.36111e-015 -1.33558e-015 6.49777e-015
LeftArm  -87.4944 -41.6596 15.3471
LeftForeArm  -34.8871 -32.7208 7.92104
LeftHand  -1.97843 -5.02932 -0.164154
RightShoulder  -4.77083e-015 -6.36111e-015 -3.18055e-015
RightArm  3.39428 21.1547 -15.6916
RightForeArm  -8.05936 17.0773 -17.8003
RightHand  0.505092 -5.99798 2.95736
LeftUpLeg  68.7506 9.85619 12.0892
LeftLeg  -20.7351 -14.2882 0.467771
LeftFoot  33.1064 -5.57014 8.38522
LeftToes  1.27222e-014 -5.20697e-012 1.80337e-011
538
root  -17.2915 40.8455 -17.8642 -15.8962 -33.9837 -46.2647
RightUpLeg  -59.3814 17.6036 -15.8695
RightLeg  -46.6439 -27.0442 8.1672
RightFoot  11.4103 6.2811 -16.8836
RightToes  -1.27222e-014 -6.36111e-015 6.36111e-015
Spine  -8.49511 -17.2444 -0.148022
Spine1  -45.845 -15.4476 45.6411
HEad  -6.93344 -9.12798 -17.7984
LeftShoulder1  6.36111e-015 -1.33558e-015 6.49777e-015
LeftArm  -83.9528 -38.9334 17.5504
LeftForeArm  -38.8058 -37.1262 12.4447
LeftHand  -1.90789 -4.78868 -0.817423
RightShoulder  -4.77083e-015 -6.36111e-015 -3.18055e-015
RightArm  16.9955 21.6578 -17.375
RightForeArm  -2.5693 15.6696 -13.7373
RightHand  -0.99003 -4.9089 10.852
LeftUpLeg  69.4562 0.884859 20.6797
LeftLeg  -26.4369 -24.9481 5.6533
LeftFoot  47.2242 7.15327 -8.72544
LeftToes  1.27222e-014 -5.20697e-012 1.80337e-011
539
root  -18.3216 44.0322 -18.8765 -26.326 -8.34336 -46.9703
RightUpLeg  -52.9178 16.2776 -23.3869
RightLeg  -30.8698 -29.5737 4.18683
RightFoot  10.7106 6.7053 -17.5653
RightToes  -1.27222e-014 -6.36111e-015 6.36111e-015
Spine  -9.16632 -20.3694 -2.51607
Spine1  -39.4693 -18.3294 44.6575
HEad  -4.91351 -7.02039 -26.1152
LeftShoulder1  6.36111e-015 -1.33558e-015 6.49777e-015
LeftArm  -77.8523 -47.3127 23.4965
LeftForeArm  -42.4936 -43.1912 20.1801
LeftHand  -1.66771 -4.03867 -1.93368
RightShoulder  -4.77083e-015 -6.36111e-015 -3.18055e-015
RightArm  39.1495 20.21 -22.6733
RightForeArm  -0.765988 11.7483 -10.9789
RightHand  -1.40111 -2.95929 12.5636
LeftUpLeg  59.3591 -5.60057 23.4993
LeftLeg  -10.517 -22.0993 -0.0839905
LeftFoot  42.5233 12.859 -16.7969
LeftToes  1.27222e-014 -5.20697e-012 1.80337e-011
540
root  -19.3247 47.1572 -19.3083 -37.7838 13.7338 -54.5513
RightUpLeg  -41.499 16.976 -22.1201
RightLeg  -16.9477 -26.8801 -0.331049
RightFoot  10.4381 7.11375 -18.2963
RightToes  -1.27222e-014 -6.36111e-015 6.36111e-015
Spine  -5.96395 -21.2377 -7.08836
Spine1  -28.0951 -17.0084 46.1616
HEad  -3.45524 -3.74691 -34.8387
LeftShoulder1  6.36111e-015 -1.33558e-015 6.49777e-015
LeftArm  -72.3231 -61.8096 28.4047
LeftForeArm  -43.6139 -49.8757 29.2406
LeftHand  -1.07334 -2.20211 -3.41772
RightShoulder  -4.77083e-015 -6.36111e-015 -3.18055e-015
RightArm  68.5543 13.777 -26.609
RightForeArm  -4.29742 3.31715 -9.55186
RightHand  -1.37006 -2.02932 11.9334
LeftUpLeg  47.8764 -11.9976 18.6958
LeftLeg  15.4489 -22.5716 -7.31667
LeftFoot  27.9611 12.2862 -20.9286
LeftToes  1.27222e-014 -5.20697e-012 1.80337e-011
541
root  -19.9329 50.3465 -19.0603 -51.5703 30.658 -70.1633
RightUpLeg  -31.9233 15.9009 -12.4974
RightLeg  -9.95748 -24.6547 -1.9508
RightFoot  8.44697 6.83246 -17.4695
RightToes  -1.27222e-014 -6.36111e-015 6.36111e-015
Spine  -2.48137 -21.8144 -10.1187
Spine1  -20.4141 -16.6923 47.5868
HEad  -5.57426 -0.198988 -37.5506
LeftShoulder1  6.36111e-015 -1.33558e-015 6.49777e-015
LeftArm  -59.3765 -76.0376 24.6627
LeftForeArm  -33.1575 -54.5696 27.8633
LeftHand  -0.660256 -0.819268 -4.51111
RightShoulder  -4.77083e-015 -6.36111e-015 -3.18055e-015
RightArm  90.75 -3.55334 -27.143
RightForeArm  -7.87602 -7.10304 -6.54335
RightHand  -2.24408 1.70705 17.4915
LeftUpLeg  33.4632 -15.7082 19.2504
LeftLeg  40.3766 -21.4673 -16.6611
LeftFoot  19.8339 10.8889 -21.8912
LeftToes  1.27222e-014 -5.20697e-012 1.80337e-011
542
root  -19.7489 53.5519 -18.3546 -71.51 41.949 -95.5399
RightUpLeg  -28.8093 14.4045 -1.82909
RightLeg  -7.19318 -23.2765 -2.42154
RightFoot  4.62611 6.1301 -15.341
RightToes  -1.27222e-014 -6.36111e-015 6.36111e-015
Spine  1.31292 -25.3204 -14.3135
Spine1  -14.786 -19.7534 49.785
HEad  -10.4693 -3.50263 -36.0696
LeftShoulder1  6.36111e-015 -1.33558e-015 6.49777e-015
LeftArm  -7.88833 -78.1997 -18.0636
LeftForeArm  -14.0546 -51.4989 13.5601
LeftHand  -1.57664 -3.06074 -7.1511
RightShoulder  -4.77083e-015 -6.36111e-015 -3.18055e-015
RightArm  97.0169 -22.0305 -30.2814
RightForeArm  -8.00891 -8.61692 -2.60151
RightHand  -2.71272 9.57341 24.595
LeftUpLeg  17.1307 -10.0309 22.6196
LeftLeg  56.9411 -11.7795 -13.762
LeftFoot  15.6373 6.8245 -15.1598
LeftToes  1.27222e-014 -5.20697e-012 1.80337e-011
